<svg version="1.0" xmlns="http://www.w3.org/2000/svg"
 width="315.000000pt" height="301.000000pt" viewBox="0 0 315.000000 301.000000"
 preserveAspectRatio="xMidYMid meet">

<g transform="translate(0.000000,301.000000) scale(0.100000,-0.100000)"
 stroke="none">
<path d="M860 2620 c-399 -186 -737 -345 -753 -354 l-27 -15 0 -739 c0 -580 3
-742 13 -749 12 -11 1442 -678 1487 -695 22 -8 130 39 780 340 l755 349 0 754
0 753 -745 348 c-409 191 -754 348 -765 347 -11 0 -346 -153 -745 -339z m1381
-161 c343 -160 627 -296 631 -303 4 -6 8 -297 8 -647 0 -497 -3 -639 -12 -647
-7 -5 -296 -141 -642 -301 l-630 -292 -615 287 c-339 157 -626 293 -639 300
l-22 14 0 633 c0 347 4 638 9 645 7 12 1255 600 1277 601 5 1 291 -130 635
-290z"/>
<path d="M1166 2365 c-214 -101 -393 -190 -398 -198 -4 -8 -5 -22 -2 -30 8
-22 793 -387 833 -387 21 0 116 39 259 106 124 59 300 141 391 183 91 43 170
85 175 94 8 12 8 22 0 35 -6 9 -186 99 -400 199 -310 146 -397 183 -429 182
-30 -1 -137 -46 -429 -184z m656 -107 c120 -56 218 -104 218 -108 0 -3 -99
-52 -221 -109 l-221 -103 -223 103 c-124 57 -224 106 -224 109 -1 5 428 207
443 209 5 1 108 -45 228 -101z"/>
<path d="M2649 2009 c-46 -23 -300 -142 -564 -266 -417 -195 -483 -224 -505
-215 -14 5 -267 123 -563 261 -296 138 -542 251 -547 251 -5 0 -16 -7 -24 -16
-14 -13 -16 -52 -16 -273 0 -254 0 -258 25 -307 14 -28 37 -59 52 -70 47 -35
1066 -504 1094 -504 14 0 219 90 455 200 236 110 439 203 452 206 23 6 23 6
20 -97 l-3 -103 -455 -213 c-250 -117 -461 -213 -469 -213 -8 0 -270 119 -583
265 -313 146 -573 263 -579 260 -12 -8 -11 -91 2 -139 23 -85 43 -96 611 -361
290 -135 537 -245 548 -245 11 0 260 111 552 248 369 171 541 257 563 278 51
50 56 89 53 379 -3 300 2 286 -101 239 -97 -43 -704 -323 -894 -413 l-172 -81
-443 206 c-265 123 -452 216 -465 230 -20 22 -23 36 -23 109 0 46 4 86 9 89 5
4 207 -86 448 -200 241 -113 452 -206 468 -207 20 0 168 64 440 190 226 105
471 219 545 252 82 38 146 73 163 92 24 26 27 36 27 103 0 54 -4 79 -16 90 -8
9 -16 16 -18 16 -1 0 -40 -18 -87 -41z"/>
</g>
</svg>
